<?xml version="1.0" encoding="UTF-8" standalone="no" ?>
<!DOCTYPE svg PUBLIC "-//W3C//DTD SVG 1.1//EN" "http://www.w3.org/Graphics/SVG/1.1/DTD/svg11.dtd">
<svg xmlns="http://www.w3.org/2000/svg" xmlns:xlink="http://www.w3.org/1999/xlink" version="1.1" width="1080" height="1080" viewBox="0 0 1080 1080" xml:space="preserve">
<desc>Created with Fabric.js 5.2.4</desc>
<defs>
</defs>
<rect x="0" y="0" width="100%" height="100%" fill="transparent"></rect>
<g transform="matrix(1 0 0 1 540 540)" id="bf42e2e9-daaa-488a-9569-e4f87e6438be"  >
<rect style="stroke: none; stroke-width: 1; stroke-dasharray: none; stroke-linecap: butt; stroke-dashoffset: 0; stroke-linejoin: miter; stroke-miterlimit: 4; fill: rgb(255,255,255); fill-rule: nonzero; opacity: 1; visibility: hidden;" vector-effect="non-scaling-stroke"  x="-540" y="-540" rx="0" ry="0" width="1080" height="1080" />
</g>
<g transform="matrix(Infinity NaN NaN Infinity 0 0)" id="19dd15db-6559-4dbb-a721-5dcd13108c18"  >
</g>
<g transform="matrix(1.44 0 0 1.47 540 540)"  >
<g style="" vector-effect="non-scaling-stroke"   >
		<g transform="matrix(0.13 0 0 -0.13 -225.35 0.03)"  >
<path style="stroke: none; stroke-width: 1; stroke-dasharray: none; stroke-linecap: butt; stroke-dashoffset: 0; stroke-linejoin: miter; stroke-miterlimit: 4; fill: rgb(255,255,255); fill-rule: nonzero; opacity: 1;" vector-effect="non-scaling-stroke"  transform=" translate(-544.5, -474.31)" d="M 517 642 C 510 631 390 311 390 304 C 390 301 402 300 416 302 C 437 304 446 314 460 350 L 478 395 L 546 395 L 614 395 L 629 348 C 642 306 647 300 671 300 L 699 300 L 665 393 C 571 652 574 645 547 648 C 533 650 519 647 517 642 z M 569 518 C 581 484 590 452 590 448 C 590 444 568 440 541 440 L 491 440 L 510 493 C 533 559 541 580 545 580 C 547 580 558 552 569 518 z" stroke-linecap="round" />
</g>
		<g transform="matrix(0.13 0 0 -0.13 -25.81 -0.06)"  >
<path style="stroke: none; stroke-width: 1; stroke-dasharray: none; stroke-linecap: butt; stroke-dashoffset: 0; stroke-linejoin: miter; stroke-miterlimit: 4; fill: rgb(255,255,255); fill-rule: nonzero; opacity: 1;" vector-effect="non-scaling-stroke"  transform=" translate(-2041.04, -475)" d="M 1815 623 C 1818 607 1840 530 1864 450 C 1905 308 1907 305 1934 305 C 1962 305 1963 308 2000 433 C 2021 504 2040 563 2042 565 C 2043 567 2063 508 2084 434 C 2121 305 2124 300 2150 300 C 2176 300 2178 305 2223 459 C 2249 547 2270 626 2270 634 C 2270 643 2261 650 2250 650 C 2226 650 2220 637 2183 495 C 2168 437 2153 390 2150 390 C 2147 390 2138 411 2132 438 C 2125 464 2108 522 2094 568 C 2070 645 2067 650 2041 650 C 2014 650 2013 646 1975 515 C 1954 440 1936 381 1935 382 C 1933 384 1920 430 1906 485 C 1862 649 1862 650 1833 650 C 1811 650 1809 647 1815 623 z" stroke-linecap="round" />
</g>
		<g transform="matrix(0.13 0 0 -0.13 61.28 -0.13)"  >
<path style="stroke: none; stroke-width: 1; stroke-dasharray: none; stroke-linecap: butt; stroke-dashoffset: 0; stroke-linejoin: miter; stroke-miterlimit: 4; fill: rgb(255,255,255); fill-rule: nonzero; opacity: 1;" vector-effect="non-scaling-stroke"  transform=" translate(-2694.2, -475.5)" d="M 2580 476 C 2580 309 2581 300 2599 300 C 2610 300 2620 306 2623 313 C 2627 323 2630 323 2641 313 C 2648 306 2675 300 2701 300 C 2760 300 2796 332 2806 395 C 2823 510 2747 590 2661 547 L 2631 532 L 2628 589 C 2625 638 2622 645 2603 648 L 2580 651 L 2580 476 z M 2731 502 C 2749 487 2754 472 2754 433 C 2755 374 2732 340 2692 340 C 2649 340 2630 367 2630 426 C 2630 471 2634 482 2656 499 C 2689 525 2701 525 2731 502 z" stroke-linecap="round" />
</g>
		<g transform="matrix(0.13 0 0 -0.13 118.67 -0.06)"  >
<path style="stroke: none; stroke-width: 1; stroke-dasharray: none; stroke-linecap: butt; stroke-dashoffset: 0; stroke-linejoin: miter; stroke-miterlimit: 4; fill: rgb(255,255,255); fill-rule: nonzero; opacity: 1;" vector-effect="non-scaling-stroke"  transform=" translate(-3124.61, -475)" d="M 2980 475 L 2980 300 L 3062 300 C 3169 300 3220 323 3249 384 C 3273 433 3276 506 3256 553 C 3227 622 3167 650 3048 650 L 2980 650 L 2980 475 z M 3186 567 C 3217 530 3226 476 3209 426 C 3190 373 3157 351 3090 348 L 3035 345 L 3032 474 L 3029 602 L 3096 598 C 3153 594 3166 590 3186 567 z" stroke-linecap="round" />
</g>
		<g transform="matrix(0.13 0 0 -0.13 235.5 -0.12)"  >
<path style="stroke: none; stroke-width: 1; stroke-dasharray: none; stroke-linecap: butt; stroke-dashoffset: 0; stroke-linejoin: miter; stroke-miterlimit: 4; fill: rgb(255,255,255); fill-rule: nonzero; opacity: 1;" vector-effect="non-scaling-stroke"  transform=" translate(-4000.89, -475.45)" d="M 4033 633 C 4029 623 4000 545 3969 460 C 3916 316 3914 305 3932 302 C 3943 300 3954 301 3957 303 C 3964 310 4080 629 4080 641 C 4080 657 4040 650 4033 633 z" stroke-linecap="round" />
</g>
		<g transform="matrix(0.13 0 0 -0.13 -263.91 -0.15)"  >
<path style="stroke: none; stroke-width: 1; stroke-dasharray: none; stroke-linecap: butt; stroke-dashoffset: 0; stroke-linejoin: miter; stroke-miterlimit: 4; fill: rgb(255,255,255); fill-rule: nonzero; opacity: 1;" vector-effect="non-scaling-stroke"  transform=" translate(-255.32, -475.69)" d="M 265 553 C 210 529 159 503 151 495 C 124 469 148 445 244 402 C 379 342 372 343 368 370 C 366 389 348 401 283 430 C 237 450 198 469 195 471 C 193 474 231 493 280 515 C 357 547 370 556 370 576 C 370 589 369 600 368 599 C 366 599 320 578 265 553 z" stroke-linecap="round" />
</g>
		<g transform="matrix(0.13 0 0 -0.13 264.62 0.5)"  >
<path style="stroke: none; stroke-width: 1; stroke-dasharray: none; stroke-linecap: butt; stroke-dashoffset: 0; stroke-linejoin: miter; stroke-miterlimit: 4; fill: rgb(255,255,255); fill-rule: nonzero; opacity: 1;" vector-effect="non-scaling-stroke"  transform=" translate(-4219.29, -470.79)" d="M 4110 576 C 4110 557 4125 546 4200 513 L 4290 473 L 4200 432 C 4127 399 4110 387 4110 370 C 4110 358 4114 350 4119 352 C 4124 354 4174 375 4229 400 C 4326 443 4331 446 4328 474 C 4325 500 4315 507 4218 550 C 4113 597 4110 598 4110 576 z" stroke-linecap="round" />
</g>
		<g transform="matrix(0.13 0 0 -0.13 -174.62 5.94)"  >
<path style="stroke: none; stroke-width: 1; stroke-dasharray: none; stroke-linecap: butt; stroke-dashoffset: 0; stroke-linejoin: miter; stroke-miterlimit: 4; fill: rgb(255,255,255); fill-rule: nonzero; opacity: 1;" vector-effect="non-scaling-stroke"  transform=" translate(-925, -430)" d="M 823 545 C 804 537 788 535 785 541 C 781 546 770 550 759 550 C 741 550 740 542 740 425 L 740 300 L 765 300 C 790 300 790 301 790 388 C 790 486 802 510 853 510 C 890 510 900 484 900 386 C 900 301 900 300 925 300 C 950 300 950 301 950 388 C 950 486 962 510 1011 510 C 1053 510 1060 493 1060 393 C 1060 300 1060 300 1085 300 C 1110 300 1110 301 1110 389 C 1110 503 1099 536 1054 550 C 1024 560 1013 559 978 541 C 955 530 933 525 930 530 C 925 539 875 560 862 560 C 858 559 840 553 823 545 z" stroke-linecap="round" />
</g>
		<g transform="matrix(0.13 0 0 -0.13 -126.94 6.01)"  >
<path style="stroke: none; stroke-width: 1; stroke-dasharray: none; stroke-linecap: butt; stroke-dashoffset: 0; stroke-linejoin: miter; stroke-miterlimit: 4; fill: rgb(255,255,255); fill-rule: nonzero; opacity: 1;" vector-effect="non-scaling-stroke"  transform=" translate(-1282.59, -429.48)" d="M 1234 546 C 1204 533 1190 513 1190 484 C 1190 463 1228 467 1240 490 C 1263 534 1340 522 1340 475 C 1340 453 1336 450 1300 450 C 1194 450 1142 382 1198 318 C 1217 296 1287 294 1317 315 C 1336 328 1339 328 1344 315 C 1347 307 1359 300 1370 300 C 1389 300 1390 306 1390 403 C 1389 513 1383 532 1336 550 C 1300 563 1272 562 1234 546 z M 1340 398 C 1340 366 1311 340 1275 340 C 1239 340 1217 359 1226 383 C 1233 401 1273 418 1313 419 C 1334 420 1340 415 1340 398 z" stroke-linecap="round" />
</g>
		<g transform="matrix(0.13 0 0 -0.13 -89.28 6.3)"  >
<path style="stroke: none; stroke-width: 1; stroke-dasharray: none; stroke-linecap: butt; stroke-dashoffset: 0; stroke-linejoin: miter; stroke-miterlimit: 4; fill: rgb(255,255,255); fill-rule: nonzero; opacity: 1;" vector-effect="non-scaling-stroke"  transform=" translate(-1565, -427.33)" d="M 1543 545 C 1524 537 1508 535 1505 541 C 1501 546 1490 550 1479 550 C 1461 550 1460 542 1460 425 L 1460 300 L 1485 300 C 1510 300 1510 301 1510 388 C 1510 488 1522 510 1577 510 C 1616 510 1620 499 1620 389 C 1620 301 1620 300 1645 300 L 1670 300 L 1670 404 C 1670 488 1667 512 1653 528 C 1629 555 1582 563 1543 545 z" stroke-linecap="round" />
</g>
		<g transform="matrix(0.13 0 0 -0.13 23.05 6.12)"  >
<path style="stroke: none; stroke-width: 1; stroke-dasharray: none; stroke-linecap: butt; stroke-dashoffset: 0; stroke-linejoin: miter; stroke-miterlimit: 4; fill: rgb(255,255,255); fill-rule: nonzero; opacity: 1;" vector-effect="non-scaling-stroke"  transform=" translate(-2407.51, -428.62)" d="M 2353 544 C 2285 510 2274 375 2335 323 C 2374 289 2461 290 2496 325 C 2525 354 2524 384 2495 388 C 2482 390 2471 383 2465 368 C 2443 318 2350 341 2350 397 C 2350 419 2352 420 2435 420 C 2514 420 2520 421 2520 440 C 2520 484 2491 530 2456 545 C 2412 564 2393 564 2353 544 z M 2450 500 C 2487 463 2476 450 2410 450 C 2357 450 2350 452 2350 469 C 2350 491 2385 520 2412 520 C 2422 520 2439 511 2450 500 z" stroke-linecap="round" />
</g>
		<g transform="matrix(0.13 0 0 -0.13 159.05 6.12)"  >
<path style="stroke: none; stroke-width: 1; stroke-dasharray: none; stroke-linecap: butt; stroke-dashoffset: 0; stroke-linejoin: miter; stroke-miterlimit: 4; fill: rgb(255,255,255); fill-rule: nonzero; opacity: 1;" vector-effect="non-scaling-stroke"  transform=" translate(-3427.51, -428.62)" d="M 3373 544 C 3305 510 3294 375 3355 323 C 3394 289 3481 290 3516 325 C 3545 354 3544 384 3515 388 C 3502 390 3491 383 3485 368 C 3463 318 3370 341 3370 397 C 3370 419 3372 420 3455 420 C 3534 420 3540 421 3540 440 C 3540 484 3511 530 3476 545 C 3432 564 3413 564 3373 544 z M 3470 500 C 3507 463 3496 450 3430 450 C 3377 450 3370 452 3370 469 C 3370 491 3405 520 3432 520 C 3442 520 3459 511 3470 500 z" stroke-linecap="round" />
</g>
		<g transform="matrix(0.13 0 0 -0.13 194.26 6.54)"  >
<path style="stroke: none; stroke-width: 1; stroke-dasharray: none; stroke-linecap: butt; stroke-dashoffset: 0; stroke-linejoin: miter; stroke-miterlimit: 4; fill: rgb(255,255,255); fill-rule: nonzero; opacity: 1;" vector-effect="non-scaling-stroke"  transform=" translate(-3691.54, -425.5)" d="M 3576 528 C 3580 515 3601 459 3622 403 C 3659 308 3664 300 3689 300 C 3713 300 3719 307 3737 358 C 3748 389 3769 446 3784 483 L 3810 551 L 3783 548 C 3760 545 3753 535 3724 457 C 3706 408 3690 366 3687 364 C 3685 362 3677 379 3670 402 C 3636 519 3619 550 3594 550 C 3572 550 3570 547 3576 528 z" stroke-linecap="round" />
</g>
</g>
</g>
</svg>